<svg xmlns="http://www.w3.org/2000/svg" viewBox="0 0 1024 1024"><path fill="#fad81a" stroke="#fad81a" d="M471.361 158.468c-3.927 1.849-7.977 4.062-9 4.917-1.024.855-6.361 4.886-11.861 8.958-5.5 4.071-12.25 9.6-15 12.285-2.75 2.685-7.303 6.562-10.117 8.615-2.814 2.052-7.703 6.677-10.863 10.277-3.161 3.601-7.046 7.218-8.634 8.039-1.587.821-2.886 2.111-2.886 2.867 0 .756-3.182 4.457-7.072 8.225-3.889 3.767-8.12 8.874-9.402 11.349-1.282 2.475-3.849 5.85-5.704 7.5-3.268 2.908-16.337 21.016-17.574 24.351-.336.907-2.368 4.044-4.515 6.972-2.148 2.928-4.611 7.397-5.474 9.93-.863 2.534-2.826 6.469-4.362 8.745-5.732 8.493-13.7 28.822-20.566 52.473-2.364 8.141-3.083 11.192-5.312 22.529-4.987 25.367-4.97 86.294.03 107.359.569 2.398 1.688 8.023 2.487 12.5.799 4.478 1.733 9.153 2.075 10.391 1.345 4.864-18.847 2.728-25.138-2.658-6.524-5.586-14.547-10.375-18.66-11.138-12.392-2.301-25.269 6.667-20.123 14.013 1.369 1.956 1.248 2.033-3.19 2.033-15.68 0-21.949 7.926-15.704 19.853 1.702 3.251 2.001 4.687 1.18 5.676-.604.728-.958 3.254-.787 5.614.384 5.293 4.799 8.857 10.971 8.857h3.864l-.63 3.938c-1.289 8.059 9.946 12.766 20.336 8.522 3.601-1.472 10.27-8.814 10.27-11.308 0-.84 7.19-1.152 26.594-1.152 26.241 0 26.601.028 27.147 2.117.604 2.31 14.083 29.152 17.587 35.023 1.194 2.002 3.72 6.277 5.613 9.5 5.018 8.546 10.659 16.688 13.078 18.877 1.162 1.052 4.147 4.973 6.634 8.713 2.487 3.741 6.049 7.966 7.915 9.39 1.867 1.424 4.977 4.791 6.911 7.484 1.934 2.692 6.105 6.912 9.269 9.377 3.164 2.465 6.592 5.728 7.619 7.251 1.026 1.522 3.651 4.118 5.833 5.768 2.182 1.65 5.617 4.476 7.633 6.279 6.86 6.136 19.649 15.833 25.667 19.462 3.3 1.991 6.995 4.552 8.211 5.692 1.217 1.14 5.141 3.472 8.721 5.182 3.58 1.711 7.028 3.734 7.661 4.497.634.764 1.734 1.388 2.446 1.388.712 0 1.444.337 1.628.75.556 1.251 17.024 8.968 21.833 10.231 2.475.65 5.4 1.751 6.5 2.446 15.061 9.521 58.36 11.308 74.172 3.06 3.265-1.702 6.591-1.874 10.835-.56 10.163 3.148 22.682 8.223 26.896 10.902 2.697 1.714 6.499 3.644 8.449 4.287 1.95.644 5.686 2.433 8.303 3.975 2.617 1.543 7.085 3.497 9.93 4.342 2.845.844 5.751 2.016 6.457 2.602.707.587 4.384 1.327 8.171 1.644 10.757.902 18.557-2.902 25.124-12.252 2.681-3.819 5.594-7.539 6.471-8.268 3.22-2.672 10.172-27.757 9.264-33.431-1.948-12.183-8.03-15.625-27.759-15.708-14.136-.06-32.976-7.308-48.327-18.593-7.62-5.602-8.288-7.076-9.937-21.927-.986-8.881-7.266-26.097-12.317-33.767-1.882-2.857-4.166-6.642-5.077-8.411-.91-1.77-4.805-6.691-8.655-10.936-3.85-4.246-8.96-9.879-11.355-12.518-2.395-2.64-5.213-5.072-6.261-5.405-1.048-.333-2.543-1.836-3.321-3.341-.778-1.505-3.928-5.41-7-8.679l-5.585-5.943 5.261-.609c8.106-.94 26.706.108 32.106 1.808 4.475 1.408 5.063 1.984 7.682 7.521 3.947 8.348 11.604 11.565 16.729 7.03 2.585-2.287 6.672-12.749 5.635-14.426-.437-.708.425-.327 1.916.846 2.846 2.238 7.667 1.4 7.685-1.337.004-.641.505-1.332 1.113-1.535 4.034-1.344 8.001-32.773 4.665-36.952-3.304-4.138-13.226-4.103-18.867.067-3.409 2.521-3.661 2.267-.903-.913 3.299-3.804 2.324-10.757-2.085-14.865-3.248-3.026-9.223-3.533-18.929-1.609-8.009 1.589-8.744 1.957-13.084 6.557-3.833 4.062-5.497 5.055-10 5.967-2.971.601-7.427 1.712-9.902 2.467-5.983 1.828-28.977 5.616-30.052 4.951-1.367-.845-9.683-12.055-11.386-15.348-2.605-5.037-1.255-104.476 1.909-140.62.289-3.3.768-10.275 1.064-15.5 1.561-27.49 4.579-61.693 7.017-79.5 2.819-20.597 4.895-55.339 3.658-61.233-1.96-9.347-7.779-15.331-24.516-25.212-4.844-2.859-10.469-5.454-12.5-5.766-2.032-.312-4.419-.937-5.306-1.389-1.943-.991-19.657-4.922-21.841-4.847-.851.029-4.76 1.566-8.686 3.415M460.5 180.256c-2.2 1.777-6.177 5.346-8.837 7.932-2.661 2.586-6.711 5.656-9 6.823-3.567 1.818-8.247 5.973-21.663 19.236-1.375 1.359-4.864 5.01-7.753 8.112-2.889 3.103-5.637 5.641-6.108 5.641-.471 0-2.454 2.363-4.407 5.25-1.953 2.887-6.067 7.848-9.142 11.024-3.074 3.175-5.59 6.457-5.59 7.293 0 .836-2.185 4.146-4.856 7.355C376.922 266.4 367 281.294 367 283.157c0 .789-1.952 4.602-4.338 8.472-4.227 6.855-11.662 22.94-11.662 25.228 0 .628-1.091 3.28-2.425 5.892-4.935 9.67-11.636 34.178-13.603 49.751-2.463 19.502-.538 15.518 4.445-9.197.687-3.408 1.706-6.783 2.264-7.5.557-.716 1.798-3.762 2.757-6.768.959-3.005 3.727-9.451 6.153-14.324 2.425-4.873 4.409-9.432 4.409-10.131 0-.698.9-2.085 2-3.08 1.1-.995 2-2.183 2-2.639 0-.456 1.298-3.424 2.885-6.595L369.019 298c2.338-4.675 5.131-9.625 6.206-11 1.076-1.375 2.57-3.969 3.321-5.764.75-1.795 2.056-3.53 2.903-3.855.847-.325 1.322-.942 1.056-1.372-.266-.431.187-1.338 1.006-2.018.819-.68 1.489-1.622 1.489-2.094 0-1.236 6.756-11.686 10.667-16.5 1.833-2.257 3.333-4.465 3.333-4.908 0-.442 3.062-4.221 6.803-8.397 3.742-4.176 7.802-9.236 9.023-11.246 1.22-2.01 5.2-6.51 8.843-10s11.62-11.156 17.727-17.035c6.107-5.878 12.85-11.953 14.984-13.5 6.051-4.385 11.306-9.753 10.859-11.094-.263-.788.241-1.008 1.427-.623 1.525.494 1.581.413.334-.484-2.424-1.744-4.257-1.281-8.5 2.146m-92.675 217.758c-3.307 1.977-4.244 7.589-1.831 10.977 3.59 5.043 9.941 3.099 11.611-3.553 1.307-5.206-5.212-10.154-9.78-7.424m102.041.497c-4.865 2.644-4.724 8.96.267 11.908 3.891 2.299 7.397 1.391 9.37-2.425 3.52-6.808-2.912-13.137-9.637-9.483M516 491.873c0 .631 1.48 3.28 3.289 5.887 1.81 2.607 4.821 8.34 6.692 12.74 5.895 13.861 35.843 53.606 42.163 55.956.905.337 2.671 2.11 3.926 3.942 1.255 1.831 4.221 4.629 6.591 6.216 2.37 1.587 4.564 3.561 4.875 4.386.311.825 1.998 2.625 3.747 4l3.182 2.5-2.264-3.198c-1.245-1.759-3.9-4.684-5.9-6.5-4.738-4.303-6.947-6.663-11.801-12.608-2.2-2.695-5.269-5.753-6.82-6.797-1.551-1.043-4.009-3.922-5.463-6.397-1.454-2.475-4.613-6.556-7.021-9.069-2.407-2.512-5.574-6.671-7.037-9.241-1.462-2.57-5.359-8.592-8.659-13.383-3.3-4.79-6.938-10.899-8.085-13.575-1.147-2.677-2.947-5.845-4-7.042s-3.152-3.704-4.665-5.571c-1.513-1.867-2.75-2.878-2.75-2.246M300 750.641c-6.361 1.994-11 7.205-11 12.356 0 .657-.652 2.389-1.448 3.849-.796 1.46-2.099 4.904-2.894 7.654-1.254 4.335-3.806 11.513-9.955 28-.82 2.2-2.733 7.825-4.251 12.5-1.517 4.675-3.081 8.95-3.475 9.5-.394.55-1.02 2.687-1.392 4.748-.371 2.062-2.53 7.687-4.797 12.5-9.282 19.705-4.73 29.23 13.977 29.246 7.616.007 9.171-1.845 11.812-14.071l1.661-7.684 4.52-.619c2.487-.341 11.561-.62 20.166-.62h15.644l2.786 9.25c3.257 10.812 4.009 12.006 8.545 13.575 6.78 2.344 13.125.607 19.351-5.298 3.433-3.255 3.796-11.075.852-18.342-5.041-12.443-7.173-18.133-8.687-23.185-.906-3.025-2.683-8.2-3.949-11.5a366.529 366.529 0 0 1-4.417-12.316c-1.163-3.474-2.497-7.074-2.965-8-1.797-3.562-5.08-12.84-5.727-16.184-1.167-6.036-6.818-18.481-9.823-21.634-3.933-4.126-16.948-6.102-24.534-3.725m218-.554c-8.717 1.489-10.122 2.139-12.505 5.793-2.542 3.897-6.659 14.142-8.286 20.62-.552 2.2-2.42 7.6-4.149 12-1.73 4.4-4.22 11.225-5.534 15.166-1.313 3.942-3.04 8.442-3.837 10-.796 1.559-1.777 4.409-2.18 6.334-.403 1.925-1.755 5.763-3.006 8.529-1.25 2.765-3.028 7.265-3.95 10-.922 2.734-2.549 6.459-3.615 8.278-7.107 12.128 3.224 26.528 17.732 24.715 4.957-.619 9.33-3.699 9.33-6.571 0-.429 1.389-4.419 3.088-8.866l3.087-8.085h37.388l1.195 4.25c.658 2.337 1.503 5.6 1.879 7.25 3.148 13.823 17.579 16.99 27.246 5.98 4.941-5.627 3.657-12.781-7.354-40.98-2.577-6.6-5.313-14.25-6.078-17-.766-2.75-1.858-5.9-2.428-7-1.428-2.759-8.992-23.32-9.934-27.007-.423-1.654-1.247-3.904-1.831-5-.585-1.096-1.635-4.018-2.333-6.493-2.631-9.317-11.952-13.958-23.925-11.913m-145.843.844c-7.004 1.79-7.157 3.108-7.157 61.864v49.909l2.25 3.317c4.192 6.178 16.273 8.026 22.925 3.506 6.375-4.332 7.234-8.4 6.409-30.354-.388-10.33-.393-21.13-.012-24.002l.692-5.222 3.618 4.22c4.799 5.597 14.551 19.549 21.345 30.537.95 1.537 3.283 4.819 5.184 7.294 1.901 2.475 3.486 5.026 3.523 5.668.123 2.168 9.041 11.702 12.181 13.022 7.082 2.978 17.938.316 20.842-5.11 2.283-4.266 2.817-14.716 2.973-58.211.182-50.63-.004-52.346-6.021-55.415-7.794-3.976-20.728-1.762-23.63 4.046-.908 1.817-1.254 10.111-1.264 30.372-.013 24.662-.188 27.729-1.515 26.628-.825-.685-1.5-1.664-1.5-2.177 0-1.083-7.575-12.431-10.151-15.208-.962-1.037-2.511-3.512-3.443-5.5-.931-1.988-2.935-5.2-4.453-7.138-3.688-4.705-13.07-18.379-14.987-21.841-2.418-4.369-5.306-7.713-7.826-9.061-2.912-1.558-15.532-2.28-19.983-1.144m213.129-.293c-1.217.27-3.591 1.779-5.275 3.352l-3.062 2.86.275 53.01.276 53.01 3 3.188c6.855 7.285 16.562 8.002 23.76 1.756 4.227-3.668 4.738-7.342 4.77-34.307.024-19.187.295-24.542 1.167-23.007.625 1.1 2.766 3.868 4.759 6.152 1.993 2.283 4.505 5.871 5.584 7.973 1.078 2.101 2.77 4.729 3.76 5.84 2.139 2.4 15.849 22.952 17.701 26.535 1.418 2.743 5.655 8.185 9.218 11.839 3.084 3.163 17.145 2.934 20.815-.339 4.892-4.363 4.966-5.206 4.966-56.392 0-63.278.42-61.39-13.702-61.524-17.385-.166-16.658-1.592-17.295 33.916l-.503 28-2.86-5.5c-1.573-3.025-4.557-7.75-6.632-10.5-2.075-2.75-4.474-6.35-5.332-8-.857-1.65-2.754-4.35-4.214-6-1.46-1.65-3.471-4.575-4.468-6.5-.998-1.925-4.54-7.261-7.871-11.859-3.332-4.597-6.314-9.168-6.628-10.157-.314-.99-1.342-2.11-2.283-2.489-2.167-.873-16.982-1.51-19.926-.857m136.906.625c-3.733 1.196-4.431 2.339-9.604 15.737-2.017 5.225-4.52 11.364-5.562 13.642-1.042 2.278-2.207 5.878-2.589 8-.625 3.469-2.186 7.76-8.648 23.767-1.089 2.699-2.58 7.208-3.312 10.02-.733 2.811-2.484 7.127-3.892 9.591-1.409 2.464-2.566 5.08-2.573 5.813-.007.734-1.362 4.705-3.012 8.826-3.426 8.557-3.597 10.281-1.463 14.778 2.86 6.026 18.474 13.335 23.036 10.782 1.694-.948 6.198-10.585 9.114-19.501l1.584-4.842 18.902.288 18.903.289.614 2.449c2.092 8.334 8.094 19.532 10.906 20.349C775.195 874.328 786 867.73 786 858.182c0-4.803-4.715-21.545-9.485-33.682-2.239-5.695-4.812-12.746-7.482-20.5-1.094-3.178-7.244-20.336-13.261-37-3.884-10.757-6.485-14.597-10.752-15.876-4.612-1.382-18.339-1.298-22.828.139M165 751.678c-9.169 1.487-9 .367-9 59.659v51.039l2.25 3.331c3.499 5.178 5.882 5.48 40.25 5.097 32.721-.364 38.8-1.246 43.929-6.376.786-.785 1.798-1.446 2.25-1.469.451-.022 2.215-1.259 3.918-2.75 12.93-11.309 13.194-34.884.541-48.185-4.642-4.88-4.776-5.25-2.56-7.089 6.579-5.459 9.298-21.788 5.52-33.142-4.337-13.032-12.722-18.432-30.792-19.831-11.516-.892-51.32-1.093-56.306-.284m26 36.452v10.131l13.655-.463c15.282-.519 16.565-1.123 17.941-8.459 1.519-8.098-4.101-11.305-19.846-11.324L191 778v10.13m543.054.219c-.03 1.017-.684 3.267-1.455 5-.77 1.733-2.808 7.36-4.527 12.504-1.72 5.144-3.789 10.634-4.599 12.2-2.503 4.84-2.27 4.947 10.806 4.947h12.279l-3.615-10.75c-1.988-5.913-3.965-11.545-4.392-12.517-.428-.971-1.602-4.346-2.611-7.5-1.008-3.153-1.857-4.901-1.886-3.884m-214.368 6.914c-1.548 3.425-3.487 8.93-4.31 12.232-.823 3.303-2.075 7.805-2.782 10.005-.708 2.2-1.093 4.563-.857 5.25.57 1.658 21.263 1.795 21.263.141 0-.61-.958-4.998-2.129-9.75-1.857-7.535-3.1-11.178-7.461-21.874-.821-2.015-1.184-1.627-3.724 3.996m-213.65 1.487c-1.345 3.712-3.439 10.35-4.654 14.75-1.215 4.4-2.526 9.013-2.912 10.25-.7 2.241-.657 2.25 10.413 2.25 12.655 0 11.925.737 9.593-9.688-1.511-6.753-2.767-10.39-6.753-19.562-2.644-6.083-2.774-6.037-5.687 2m-115.673 28.754c.35.913.637 5.448.637 10.078V844h12.852c11.724 0 13.149-.2 16.237-2.281 6.142-4.139 6.402-10.785.592-15.117-3.899-2.907-31.394-3.903-30.318-1.098" fill-rule="evenodd"/><path fill="#fbfbfb" stroke="#fbfbfb" d="M471.712 158.542c-7.693 3.914-28.482 19.283-36.125 26.707-2.798 2.717-6.924 6.218-9.17 7.779-2.246 1.561-6.891 5.886-10.323 9.61-3.431 3.725-7.444 7.505-8.916 8.4-1.473.896-4.005 3.729-5.627 6.295-1.623 2.567-3.27 4.667-3.66 4.667-1.356 0-9.16 8.874-11.585 13.176-1.342 2.378-3.691 5.316-5.221 6.528-2.504 1.983-11.625 14.539-16.457 22.653-1.029 1.729-3.788 6.068-6.131 9.643-2.342 3.575-4.816 8.245-5.497 10.377-.682 2.132-2.512 5.763-4.068 8.068-5.768 8.547-13.717 28.815-20.601 52.526-2.364 8.141-3.083 11.192-5.312 22.529-3.855 19.607-4.981 57.731-2.498 84.563 1.446 15.623 2.364 21.282 6.353 39.187l1.727 7.75h-8.833c-8.921 0-14.487-1.437-17.713-4.572-11.186-10.872-21.501-13.978-31.591-9.515-7.285 3.222-9.588 8.083-5.809 12.258 1.582 1.749 1.436 1.829-3.319 1.829-15.692 0-22.999 8.718-16.339 19.495 1.884 3.048 2.071 4.061 1.13 6.126-3.406 7.474 1.849 14.379 10.944 14.379 3.065 0 3.133.097 2.49 3.527-1.338 7.13 8.857 12.47 18.03 9.443 3.861-1.274 10.911-7.826 11.953-11.108.557-1.755 2.13-1.862 27.365-1.862h26.774l1.214 4.049c.667 2.227 2.557 6.33 4.201 9.117 1.644 2.788 4.256 7.864 5.805 11.28 1.549 3.416 4.369 8.65 6.267 11.632 1.898 2.982 3.776 6.097 4.173 6.922.867 1.804 6.139 10.244 9.809 15.705 1.459 2.17 3.945 5.262 5.524 6.87 1.579 1.609 4.333 5.231 6.121 8.05 1.789 2.819 5.603 7.363 8.477 10.097 2.874 2.734 6.798 7.001 8.719 9.481 1.921 2.48 4.998 5.586 6.839 6.903 1.84 1.317 4.544 3.71 6.007 5.319 4.976 5.47 10.4 10.575 11.235 10.575.458 0 2.818 1.913 5.245 4.25 5.611 5.404 17.369 14.243 25.431 19.117 3.438 2.078 6.25 4.158 6.25 4.622 0 .464 3.657 2.694 8.126 4.954 4.47 2.261 9.25 4.994 10.623 6.075 3.521 2.769 19.899 10.503 26.213 12.378 2.912.865 5.8 1.97 6.417 2.455 2.051 1.614 14.065 5.145 22.649 6.655 16.687 2.937 36.687 1.272 49.617-4.131 7.387-3.087 16.132-.418 44.855 13.688 9.9 4.862 19.35 9.141 21 9.508 1.65.367 4.006 1.295 5.236 2.062 8.167 5.095 24.921.808 30.764-7.872 1.65-2.452 4.736-6.573 6.858-9.159 2.647-3.227 4.721-7.43 6.61-13.402 5.053-15.97 5.406-18.403 3.579-24.685-2.736-9.412-5.501-10.858-23.047-12.052-19.727-1.342-35.066-6.525-49.881-16.854l-9.157-6.384-1.179-5.863c-.648-3.224-1.423-8.034-1.722-10.689-1.168-10.368-10.747-35.223-14.519-37.671-.425-.276-1.691-2.302-2.812-4.502-1.121-2.2-5.226-7.375-9.121-11.5-3.896-4.125-7.339-8.175-7.65-9-.311-.825-3.467-3.945-7.012-6.933-3.546-2.989-6.447-5.785-6.447-6.214 0-.429-2.763-3.733-6.14-7.343s-5.814-6.889-5.416-7.287c1.426-1.426 32.603-.368 37.548 1.274 4.287 1.424 4.921 2.074 7.594 7.779 2.782 5.937 3.14 6.279 7.764 7.421 6.746 1.665 12.65-3.27 12.65-10.574 0-1.076.563-2.183 1.25-2.461 1-.403 1-.52 0-.583-.719-.045-1.25-1.417-1.25-3.227v-3.148l2.327 3.398c6.465 9.443 14.397-3.104 15.314-24.222l.504-11.621-2.707-2.129c-4.473-3.518-11.04-2.937-17.571 1.555-4.511 3.103-5.08 3.3-3.605 1.25.964-1.339 2.474-3.446 3.357-4.681 3.679-5.147-1.652-14.287-9.155-15.695-2.088-.391-6.971.012-11.766.972-7.713 1.545-8.525 1.962-13.727 7.055-3.041 2.978-6.43 5.414-7.532 5.414-1.102 0-4.464.685-7.471 1.522-8.523 2.372-33.095 6.573-34.97 5.978-.926-.295-3.194-2.665-5.04-5.268-1.845-2.602-3.638-4.957-3.985-5.232-3.714-2.948-4.153-7.081-4.039-38 .149-40.257 3.549-120.491 6.568-155 1.561-17.841 3.738-38.939 5.006-48.5.801-6.05 2.207-20.675 3.123-32.5 1.864-24.072 1.381-29.49-3.225-36.136-5.233-7.551-25.263-20.38-36.495-23.375-22.644-6.039-23.995-6.12-32.199-1.947m-15.13 24.521c-4.27 3.435-7.993 6.844-8.273 7.575-.281.732-2.828 2.665-5.66 4.295-3.991 2.298-17.165 13.69-22.88 19.787-.403.429-3.893 4.042-7.757 8.03-3.863 3.987-8.65 9.379-10.637 11.982-1.987 2.603-5.398 6.465-7.579 8.582-2.181 2.117-4.572 5.275-5.312 7.017-.74 1.743-3.627 5.85-6.415 9.126-2.788 3.276-5.069 6.281-5.069 6.678 0 .397-.568 1.317-1.263 2.044-2.834 2.965-4.895 6.643-18.388 32.821-2.41 4.675-5.042 10.695-5.85 13.379-.807 2.683-1.927 5.432-2.488 6.108-4.1 4.94-12.287 37.286-15.19 60.013-3.967 31.054-2.623 79.18 2.695 96.5.759 2.475 1.85 6.975 2.423 10 1.934 10.217 8.892 32.549 11.06 35.5.404.55 1.768 4.15 3.03 8 2.548 7.768 8.156 19.862 12.059 26 1.398 2.2 3.571 6.57 4.827 9.711 1.257 3.141 2.895 6.216 3.64 6.835.745.618 2.582 3.223 4.082 5.789s4.445 6.843 6.545 9.505c2.1 2.662 3.825 5.362 3.833 6 .008.638 3.383 4.887 7.5 9.442 4.117 4.555 7.485 8.653 7.485 9.108 0 2.225 36.685 37.32 42.1 40.275 1.677.915 5.116 3.544 7.64 5.841s6.203 5.212 8.175 6.478c1.972 1.265 4.594 3.264 5.828 4.441s4.285 3.015 6.781 4.085c2.495 1.07 6.613 3.53 9.15 5.468 2.538 1.937 5.076 3.522 5.641 3.522.565 0 1.738.576 2.606 1.279.869.704 5.404 3.015 10.079 5.136 4.675 2.121 9.625 4.426 11 5.122 19.55 9.901 49.718 13.045 67 6.981 14.177-4.974 20.682-5.429 28.5-1.995 1.65.725 4.125 1.605 5.5 1.955 4.565 1.165 10.39 3.83 21 9.612 10.16 5.536 24.459 10.438 27.284 9.354.754-.289 3.515-.62 6.137-.735 4.599-.202 4.814-.348 6.157-4.209.766-2.2 1.399-4.677 1.407-5.504.014-1.396 5.335-13.3 10.015-22.407 2.471-4.807 2.889-4.454-6.611-5.579-4.339-.514-11.039-1.906-14.889-3.094a507.764 507.764 0 0 0-13.965-4.047c-3.831-1.038-8.556-3.003-10.5-4.367a2669.64 2669.64 0 0 0-6.035-4.219c-4.694-3.268-15.217-11.357-16.36-12.575-3.118-3.325-3.706-5.14-4.653-14.37-1.832-17.848-7.143-33.295-14.761-42.932-2.154-2.726-5.173-6.97-6.708-9.431-2.615-4.192-7.454-9.499-23.681-25.973-3.664-3.721-7.899-8.731-9.411-11.133-1.512-2.403-4.333-5.826-6.269-7.607-1.936-1.78-4.676-5.24-6.089-7.689-1.412-2.448-5.606-8.972-9.32-14.497-3.714-5.525-7.501-11.965-8.416-14.311s-3.596-6.364-5.957-8.929c-2.362-2.565-4.603-5.895-4.981-7.401-1.139-4.54 1.73-109.421 4.169-152.435.902-15.891 6.292-80.955 6.773-81.753.248-.411.981-7.272 1.63-15.247.649-7.975 1.767-18.769 2.485-23.986.718-5.217 1.108-10 .867-10.629-.441-1.147-5.669-2.353-10.289-2.374-3.239-.014-22.097-5.952-24.029-7.566-.825-.689-4.208-2.556-7.517-4.15-5.554-2.674-18.256-10.823-19.533-12.53-2.36-3.156-6.726-1.85-14.368 4.298m-91.898 202.325C356.559 388.415 353 394.77 353 406.251c0 14.619 6.351 21.725 19.434 21.743 16.393.024 25.149-21.706 14.866-36.891-4.245-6.269-14.306-8.812-22.616-5.715m103.816-.122c-8.045 2.638-12.069 9.918-11.83 21.4.19 9.123.978 11.179 6.019 15.7 9.537 8.552 22.919 7.015 30.401-3.493 4.402-6.181 3.738-22.009-1.186-28.268-3.729-4.74-16.409-7.633-23.404-5.339m-101.844 13.561c-4.647 5.136-2.017 13.173 4.312 13.173 8.438 0 9.366-14.092.974-14.799-2.501-.21-4.057.269-5.286 1.626m102.681-.645c-3.963 1.917-4.421 7.825-.882 11.363 4.311 4.312 10.156 2.744 11.967-3.21 2.007-6.596-4.465-11.356-11.085-8.153m24.163 46.496c-4.852.307-10.097 1.493-15.75 3.559-3.578 1.309-3.55 4.32.078 8.304 11.206 12.303 34.882 5.897 29.551-7.996-.699-1.821-5.594-4.64-7.579-4.365-.715.099-3.55.323-6.3.498m-148.897 1.799c-8.505 3.03-7.898 7.821 1.586 12.523 8.429 4.179 23.339 1.866 27.176-4.217 1.061-1.682-1.465-5.783-3.562-5.783-.488 0-1.853-.9-3.033-2-2.63-2.45-15.883-2.763-22.167-.523m38.147 1.603c-6.942 4.044 3.551 30.545 15.25 38.517 1.925 1.311 4.678 3.332 6.117 4.49 6.039 4.858 25.681 5.862 36.235 1.853 7.065-2.684 19.112-12.949 22.087-18.82 4.865-9.6 6.645-22.036 3.591-25.09-1.973-1.973-3.144-2.029-41.78-2-25.134.02-40.393.406-41.5 1.05M277 495c1.375 1.076 2.95 1.966 3.5 1.978 1.409.031 10.001 8.022 8.626 8.022-.619 0-1.094 1.238-1.056 2.75.056 2.173.221 2.367.789.926.396-1.003 1.152-1.903 1.68-2 .529-.097.848-.513.711-.926-.44-1.319 1.553-.804 3.179.821.864.865 1.585 1.202 1.603.75.017-.451.692.053 1.5 1.12.807 1.068 1.475 1.518 1.483 1 .009-.537.331-.511.75.059.404.55 3.21 2.314 6.235 3.921 3.025 1.606 5.725 3.187 6 3.513.752.892 11.726 6.066 12.866 6.066.545 0 1.596.605 2.335 1.344 2.168 2.168 10.974 2.833 10.403.786-.25-.896-.767-3.205-1.15-5.13-1.684-8.479-1.912-8.613-15.979-9.365-14.314-.765-16.33-1.494-28.018-10.136-9.065-6.702-10.635-7.504-14.641-7.477l-3.316.022L277 495m328.985 2.63c-9.099 4.412-18.61 8.78-21.983 10.096-2.481.968-2.475.978.795 1.457 1.81.266 4.318-.049 5.573-.7 1.255-.651 4.272-1.411 6.706-1.689 5.999-.685 17.8-8.625 17.902-12.044.038-1.284-1.275-.864-8.993 2.88M260.5 509.491c-.55.184-2.198.597-3.662.918-4.63 1.017-2.814 4.952 2.219 4.808 1.697-.048 6.442 1.009 10.545 2.348 9.715 3.171 10.125 3.095 5.931-1.098-3.675-3.676-4.417-5.456-2.283-5.482.833-.011.75-.339-.25-.985-1.395-.901-10.243-1.261-12.5-.509m368.133.999c-2.453 1.032-2.608 1.306-1.073 1.895 1.078.413 2.4.084 3.308-.824 2.081-2.081 1.186-2.51-2.235-1.071m-347.383 1.039c2.493 1.391 3.208 2.569 2.868 4.721-.065.413.359.75.941.75s.781.45.441 1 .057 1 .882 1 1.821-.52 2.213-1.155c.444-.717.275-.882-.448-.436-2.098 1.297-2.617-2.585-.559-4.188 1.409-1.098 1.484-1.344.284-.934-.896.306-2.021.2-2.5-.236-.48-.436-2.222-1.077-3.872-1.425l-3-.632 2.75 1.535m272 2.211c-3.437.196-6.25.516-6.25.713 0 1.364 4.838 8.975 7.053 11.098 2.663 2.551 2.817 2.573 10.397 1.519 4.232-.588 10.362-1.07 13.622-1.07 3.285 0 5.928-.446 5.928-1 0-.55.675-1 1.5-1s1.5.45 1.5 1 .454 1 1.008 1c1.083 0-.815-4.002-2.458-5.183-.522-.375-3.897-1.665-7.5-2.867-3.602-1.201-7.26-2.806-8.129-3.567-1.548-1.357-3.069-1.415-16.671-.643m67.457 1.51c-3.018 2.251-1.044 5.484 4.652 7.617 2.828 1.058 5.478 1.72 5.891 1.47 1.487-.902.707-2.337-1.269-2.337-1.645 0-1.905-.455-1.403-2.456.524-2.088.189-2.562-2.231-3.154-1.566-.384-3.099-1.079-3.406-1.544-.307-.465-1.313-.283-2.234.404m-31.142 5.645c-.305.493.231 1.197 1.191 1.565 2.026.777 2.274.766 2.159-.098-.047-.351.515-1.019 1.25-1.485.921-.584.501-.851-1.356-.862-1.48-.008-2.94.388-3.244.88m-334.315 4.189c-2.673 1.012-2.73 1.293-.679 3.345 2.411 2.41 4.295 1.954 3.975-.962-.356-3.242-.586-3.408-3.296-2.383M623.5 534c.34.55 1.041 1 1.559 1s.941-.45.941-1-.702-1-1.559-1-1.281.45-.941 1m-348.172 2.728c-5.217.474-7.627 2.849-4.908 4.837 2.227 1.628 6.826-.287 8.586-3.575.585-1.095.936-1.911.779-1.815-.157.096-2.162.345-4.457.553m26.033 213.854c-8.03 2.38-12.604 8.947-15.965 22.918-.397 1.65-2.946 8.85-5.666 16-2.719 7.15-5.526 15.025-6.238 17.5-.712 2.475-2.485 7.65-3.939 11.5-1.454 3.85-3.268 9.25-4.03 12-.763 2.75-3.065 8.6-5.115 13-8.263 17.731-3.222 27.553 14.092 27.463 7.463-.04 9.42-2.638 12.51-16.603 1.415-6.397 1.27-6.36 24.548-6.36 15.631 0 17.354.169 17.794 1.75 4.905 17.627 6.89 20.714 14.008 21.781 3.715.557 5.425.262 8.871-1.534 10.824-5.641 12.039-10.767 6.193-26.111-1.968-5.162-4.728-12.761-6.135-16.886-3.698-10.843-10.034-28.186-13.882-38-1.834-4.675-3.737-10.3-4.229-12.5-1.162-5.191-5.753-16.11-8.512-20.245-3.496-5.237-15.96-8.146-24.305-5.673m70.651.724c-6.627 2.268-6.512 1.213-6.512 59.878v52.684l2.8 2.922c5.137 5.364 14.253 6.678 20.676 2.982 6.739-3.879 7.091-5.595 7.158-34.885.033-14.238.242-25.887.465-25.887.936 0 7.632 8.119 11.612 14.078 2.358 3.531 5.025 7.158 5.927 8.06.902.902 3.28 4.572 5.284 8.156 2.004 3.583 4.301 7.061 5.104 7.728.804.667 2.9 3.747 4.659 6.845 4.712 8.301 11.603 15.908 15.607 17.229 8.097 2.673 17.89-1.626 20.334-8.926 1.75-5.226 1.9-101.492.164-105.379-3.682-8.247-20.998-9.063-27.122-1.277-2.109 2.681-2.168 3.533-2.17 31.371l-.002 28.615-4.586-7c-2.522-3.85-6.347-9.292-8.498-12.092-2.152-2.801-3.912-5.549-3.912-6.107 0-.557-1.684-3.216-3.742-5.907-4.407-5.763-13.075-18.453-15.367-22.497-4.169-7.354-6.76-9.703-11.926-10.811-6.398-1.372-11.505-1.302-15.953.22m139.988.188c-5.582 2.001-11.219 11.917-14.784 26.006-.556 2.2-2.429 7.6-4.161 12-1.732 4.4-4.327 11.6-5.766 16s-3.161 8.9-3.827 10c-.667 1.1-1.752 4.244-2.411 6.987-.659 2.742-1.623 5.497-2.141 6.122-.518.624-2.093 4.455-3.5 8.513-1.406 4.058-3.424 8.866-4.483 10.685-6.529 11.208 4.33 25.627 17.78 23.61 5.776-.867 7.011-2.355 11.332-13.659l3.538-9.258 19.095-.271 19.094-.271 1.785 6.771c4.251 16.133 12.986 21.325 23.813 14.154 10.022-6.639 9.583-12.089-3.695-45.883-2.485-6.325-5.035-13.472-5.668-15.882-.632-2.411-1.578-5.111-2.102-6-1.046-1.775-8.517-21.825-9.919-26.618-2.497-8.541-5.523-16.294-7.302-18.71-3.8-5.161-17.923-7.436-26.678-4.296m76.65-.613c-4.91.553-6.316 1.181-8.75 3.905l-2.9 3.246v49.359c0 54.834-.047 54.219 4.477 59.016 6.156 6.527 15.541 7.15 22.02 1.461 4.988-4.379 5.488-7.577 5.528-35.368.027-19.184.3-24.535 1.172-23 .625 1.1 2.748 3.864 4.719 6.141 1.971 2.278 4.47 5.878 5.552 8 1.082 2.123 3.175 5.287 4.651 7.032 3.329 3.934 13.855 19.779 15.497 23.327 1.739 3.756 10.529 14.74 12.746 15.926 3.593 1.923 14.467 1.035 17.871-1.459 5.716-4.188 5.832-5.315 5.734-55.808-.122-63.149.138-62.054-14.772-62.089-15.727-.038-15.552-.411-16.191 34.43l-.504 27.5-3-5.311c-1.65-2.921-4.913-7.813-7.25-10.87-2.337-3.058-4.25-5.894-4.25-6.303 0-.408-2.138-3.69-4.75-7.293s-6.272-9.02-8.132-12.037c-1.86-3.017-4.491-6.768-5.846-8.336-1.356-1.567-3.302-4.482-4.326-6.477-1.023-1.994-2.497-3.871-3.276-4.169-2.823-1.084-10.299-1.468-16.02-.823m133.85.655c-3.899 1.436-4.122 1.782-8.815 13.718-2.648 6.735-5.656 14.11-6.684 16.388-1.028 2.278-2.182 5.878-2.564 8-.641 3.558-2.847 9.575-9.048 24.674-1.314 3.199-2.389 6.586-2.389 7.528 0 .942-1.501 4.85-3.335 8.684-1.834 3.835-3.666 8.306-4.073 9.937-.406 1.631-1.617 4.894-2.69 7.25-4.363 9.578-2.813 14.58 6.213 20.047 13.833 8.379 17.468 6.285 23.895-13.762l1.763-5.5 19.137-.272c17.569-.249 19.183-.126 19.714 1.5.318.975 2.386 6.116 4.596 11.426l4.017 9.655 4.327.648c9.919 1.488 19.436-4.869 19.436-12.983 0-4.547-5.446-22.763-11.054-36.974-1.736-4.4-3.759-10.025-4.496-12.5-.736-2.475-2.752-8.325-4.478-13a3793.628 3793.628 0 0 1-7.65-21c-5.771-15.988-8.459-21.142-11.984-22.979-3.984-2.075-18.705-2.375-23.838-.485m-557.534.375c-9.179 1.829-8.966.424-8.966 59.123 0 51.221.051 51.958 3.899 56.088 3.346 3.592 6.497 3.881 37.533 3.447 32.653-.458 35.264-.807 43.588-5.828 7.778-4.691 10.584-7.384 13.494-12.949 6.783-12.972 4.079-30.233-6.303-40.238l-4.094-3.946 3.548-4.833c13.505-18.397 4.12-45.505-17.196-49.674-6.053-1.183-60.566-2.174-65.503-1.19M191 788.018v10.214l13.501-.395c15.665-.458 17.345-1.291 18.219-9.042.418-3.712.091-4.904-2.023-7.362l-2.522-2.933-13.588-.348-13.587-.348v10.214m543.054-.976c-.068 1.939-7.469 23.009-10.094 28.735-3.361 7.332-3.522 7.223 10.623 7.223 9.676 0 12.464-.289 12.067-1.25-.285-.687-1.908-5.525-3.608-10.75-1.701-5.225-3.545-10.4-4.1-11.5-.554-1.1-1.869-4.7-2.921-8-1.052-3.3-1.938-5.306-1.967-4.458m-211.986 1.813c-.038.745-1.219 3.647-2.627 6.449-2.916 5.807-8.763 26.365-7.897 27.767.316.511 5.272.929 11.015.929 12.119 0 11.464.934 8.312-11.859-2.489-10.099-8.648-26.391-8.803-23.286m-216.032 6.895c-2.093 5.779-5.793 18.252-7.712 26-.554 2.237-.488 2.25 11.127 2.25 10.666 0 11.637-.152 11.145-1.75-.297-.962-1.246-4.824-2.109-8.582-2.098-9.138-8.068-24.668-9.482-24.668-.288 0-1.623 3.038-2.969 6.75m-115.94 36.987c.206 12.132-.878 11.263 14.061 11.263 16.928 0 20.843-1.878 20.843-10 0-8.083-4.216-10-21.995-10h-13.058l.149 8.737" fill-rule="evenodd"/><path fill="#90794b" stroke="#90794b" d="M471.685 159.097c-9.404 4.853-26.07 17.07-35.185 25.792-3.3 3.158-8.268 7.369-11.04 9.357-2.772 1.989-7.403 6.332-10.29 9.652-2.888 3.32-6.544 6.8-8.125 7.734-1.581.934-3.36 2.765-3.954 4.068-.594 1.304-3.822 4.942-7.173 8.085-3.351 3.143-7.144 7.769-8.428 10.278-1.284 2.51-4.057 6.143-6.162 8.073-3.539 3.245-17.328 22.503-17.328 24.202 0 .411-1.851 3.253-4.114 6.316-2.262 3.063-4.865 7.656-5.784 10.207-.918 2.552-2.971 6.664-4.562 9.139-3.589 5.585-8.694 16.572-11.383 24.5-1.12 3.3-3.371 9.825-5.003 14.5-2.569 7.357-6.504 21.654-8.669 31.5-3.424 15.567-5.687 52.917-4.453 73.5 1.026 17.107 2.717 34.785 3.439 35.953.256.414.964 4.082 1.574 8.15.61 4.068 1.749 9.616 2.532 12.329 2.243 7.773 2.431 7.568-6.928 7.568-9.592 0-13.831-1.177-18.365-5.098-9.604-8.306-15.521-11.377-21.784-11.308-11.699.129-19.559 5.94-16.443 12.156a517.788 517.788 0 0 1 1.744 3.5c.201.412-2.034.761-4.968.774-15.541.069-21.394 6.821-15.637 18.037 2.173 4.235 2.24 4.827.925 8.28C243.7 532.702 249.596 539 257.972 539c2.957 0 3.035.116 2.505 3.75-.878 6.025 3.059 9.25 11.295 9.25 7.726 0 15.605-5.31 17.707-11.934.641-2.019 1.254-2.066 27.105-2.066h26.448l1.606 3.75c.884 2.063 2.079 4.65 2.657 5.75.578 1.1 3.672 7.175 6.876 13.5 3.203 6.325 6.838 13.137 8.077 15.137 1.238 2.001 3.8 6.276 5.693 9.5 4.799 8.177 10.779 16.885 12.674 18.458.877.729 3.41 4.043 5.629 7.365 2.218 3.322 6.558 8.577 9.645 11.679a964.315 964.315 0 0 1 10.273 10.5c8.852 9.23 18.895 18.871 22.772 21.861 2.139 1.65 8.092 6.401 13.228 10.557 5.136 4.157 12.094 9.218 15.462 11.246 3.369 2.029 6.718 4.405 7.444 5.28.726.874 4.721 3.37 8.876 5.545 4.156 2.176 10.931 5.944 15.056 8.373 4.125 2.43 10.875 5.632 15 7.117 4.125 1.485 9.3 3.485 11.5 4.443 11.928 5.198 29.428 8.92 42 8.934 7.262.007 26.097-3.64 29.335-5.681 5.451-3.436 23.626.44 36.165 7.712 6.04 3.503 29.987 14.974 31.273 14.98.675.004 2.577.712 4.227 1.575 8.728 4.565 26.826 1.201 30.938-5.75.869-1.468 3.661-5.224 6.205-8.347 6.975-8.563 13.302-28.765 11.832-37.779-1.681-10.301-4.786-12.219-22.132-13.672-24.74-2.073-37.54-6.837-55.843-20.784l-5-3.81-1.32-8.97c-2.547-17.313-7.456-31.985-14.041-41.969-1.452-2.2-3.539-5.716-4.639-7.813-1.1-2.097-4.7-6.666-8-10.152-3.3-3.487-7.94-8.636-10.31-11.443-2.371-2.806-5.626-5.783-7.233-6.614-1.608-.832-3.582-2.742-4.388-4.245-.806-1.503-3.963-5.423-7.016-8.711-7.121-7.67-6.607-7.915 15.053-7.201 20.549.679 22.561 1.413 26.157 9.549 2.786 6.303 4.477 7.143 13.605 6.753 4.08-.175 7.371-8.14 5.823-14.097-1.532-5.895.731-7.491 2.823-1.99 2.804 7.376 9.008 3.636 12.568-7.577 2.448-7.713 3.592-23.142 2.052-27.687-1.766-5.212-12.413-5.1-19.605.206-4.947 3.65-5.658 3.104-1.988-1.529 5.741-7.249 1.391-17.938-7.307-17.956-12.087-.024-19.051 2.171-24.377 7.683-2.828 2.928-5.978 5.327-7 5.332-1.021.004-4.782.926-8.357 2.049-3.575 1.124-8.975 2.454-12 2.957-3.025.503-9.325 1.564-14 2.357-9.736 1.652-9.117 1.917-15.682-6.716-7.208-9.478-7.319-9.984-7.31-33.373.015-38.025 3.974-126.996 7.444-167.282.782-9.075 1.702-20.1 2.044-24.5.343-4.4 1.463-14.75 2.489-23 3.074-24.714 4.628-54.51 3.108-59.583-2.82-9.412-23.532-24.542-39.726-29.02-20.159-5.574-23.952-5.789-31.682-1.8m-11.63 20.653c-1.857 1.512-5.892 5.015-8.966 7.784-3.074 2.769-6.921 5.694-8.55 6.5C437.963 196.3 402 231.079 402 233.24c0 .475-3.093 4.132-6.874 8.127-3.78 3.994-7.219 8.358-7.642 9.697-.423 1.34-2.669 4.686-4.992 7.436-5.234 6.199-15.492 21.437-15.492 23.014 0 .642-2.14 4.728-4.756 9.08-4.906 8.162-11.237 21.477-11.253 23.665-.005.682-1.116 3.491-2.469 6.241-1.353 2.75-2.474 5.502-2.491 6.117-.017.614-.887 3.314-1.933 6-6.549 16.815-8.455 26.398-12.51 62.883-1.625 14.618-1.686 30.555-.17 44.651 3.063 28.49 3.67 33.339 4.613 36.849.517 1.925 2.312 9.283 3.989 16.35 1.676 7.068 5.507 19.099 8.514 26.736 3.006 7.637 5.466 14.173 5.466 14.524 0 1.553 7.547 17.359 10.453 21.89 1.763 2.75 4.228 7.57 5.477 10.711 1.249 3.141 2.88 6.216 3.625 6.835.745.618 2.575 3.223 4.066 5.789 1.491 2.566 4.124 6.465 5.85 8.665 1.727 2.2 3.64 5.125 4.252 6.5.612 1.375 4.3 6.004 8.195 10.286 3.895 4.282 7.082 8.166 7.082 8.631 0 2.072 35.379 35.914 41.382 39.583 1.799 1.1 5.262 3.661 7.695 5.692 8.732 7.287 17.752 13.71 21.393 15.231 2.039.852 5.395 2.886 7.459 4.521 6.684 5.293 31.862 17.096 46.071 21.597 18.235 5.775 39.121 5.958 54.983.48 9.645-3.33 21.816-3.935 25.327-1.259.655.499 4.34 1.879 8.19 3.068 3.85 1.189 10.653 4.337 15.119 6.996 9.628 5.734 16.061 8.365 26.881 10.995 14.387 3.497 14.389 3.497 15.107.402 1.901-8.207 4.437-16.51 5.786-18.95 1.252-2.265 3.543-6.991 9.39-19.373.156-.33-3.472-.889-8.062-1.241-4.591-.353-10.568-1.353-13.284-2.222-5.402-1.728-7.611-2.385-17.666-5.252-3.7-1.055-8.65-3.348-11-5.096A6778.498 6778.498 0 0 0 626 660.367c-9.965-7.368-12.994-10.949-12.999-15.367-.017-16.115-7.902-39.932-16.872-50.963-1.996-2.455-4.801-6.28-6.233-8.5-2.724-4.222-10.728-12.537-12.068-12.537-.427 0-1.444-1.237-2.26-2.75-1.44-2.669-6.529-8.194-13.947-15.14-1.992-1.865-3.621-3.978-3.621-4.695 0-.717-2.362-3.862-5.25-6.989s-6.375-7.625-7.75-9.997-5.249-8.322-8.608-13.224c-3.359-4.901-7.341-11.565-8.848-14.808-1.507-3.243-3.267-6.347-3.91-6.897-.644-.55-2.588-2.745-4.321-4.879l-3.15-3.879.428-16.621c.235-9.141.881-34.621 1.437-56.621 1.664-65.922 4.915-118.967 10.049-164 .564-4.95 1.647-15.525 2.406-23.5.76-7.975 1.691-16.592 2.071-19.149.828-5.577-.01-6.246-9.054-7.229-6.71-.73-22.191-5.253-24.5-7.159-.825-.681-4.2-2.593-7.5-4.248-3.3-1.656-9.803-5.531-14.451-8.612-9.581-6.353-12.166-6.786-16.994-2.853M363.5 386.417c-16.073 7.175-13.578 36.122 3.506 40.668 18.798 5.003 31.907-20.004 19.268-36.758-3.908-5.18-15.478-7.166-22.774-3.91m104-.062c-11.96 5.587-14.747 26.262-4.775 35.427 14.004 12.87 32.742 3.557 32.755-16.281.006-9.224-1.498-12.888-7.024-17.102-4.325-3.299-15.86-4.424-20.956-2.044m-100.201 11.148c-4.088 2.863-4.879 8.047-1.838 12.035 3.192 4.185 6.57 4.522 10.084 1.007 6.553-6.552-.833-18.234-8.246-13.042m101.951.486c-5.432 3.312-4.424 10.707 1.921 14.103 7.942 4.25 14.178-9.469 6.447-14.183-3.881-2.367-4.362-2.362-8.368.08M491 446.011c-3.575.399-7.175.973-8 1.274-.825.301-2.738.819-4.25 1.151-4.131.905-3.647 4.521 1.19 8.891 5.974 5.397 17.945 6.38 23.884 1.962 4.239-3.153 4.401-10.604.278-12.736-3.2-1.655-3.164-1.653-13.102-.542m-146.706 1.315c-6.975 2.554-6.592 6.452 1.057 10.752 8.102 4.555 26.652 1.456 27.396-4.578.714-5.79-18.259-9.907-28.453-6.174m43.462.409c-7.656.604-8.297 4.944-2.994 20.265 3.171 9.16 3.495 9.656 9.738 14.87 9.951 8.31 12.32 9.685 18.917 10.974 18.066 3.53 29.684-.151 44.472-14.092 7.471-7.042 11.658-28.58 6.111-31.436-2.372-1.221-62.341-1.678-76.244-.581m-113.188 45.156c-.562.908 3.582 4.109 5.32 4.109 2.165 0 7.112 6.229 7.112 8.954 0 3.767-1.965 5.203-6.012 4.394-2.372-.475-3.098-.335-2.584.496.393.636 1.375 1.156 2.184 1.156.838 0 2.574 2.547 4.042 5.932 1.415 3.262 3.314 6.242 4.221 6.621 1.668.697 48.281 2.351 49.083 1.741.517-.392-1.821-9.893-3.173-12.895-.86-1.909-2.049-2.161-12.952-2.747-14.009-.753-17.322-1.93-28.059-9.965-10.726-8.028-17.37-10.728-19.182-7.796M609 495.421c-1.375.766-4.525 2.36-7 3.542-2.475 1.183-7.2 3.44-10.5 5.015-10.398 4.962-21.397 7.974-33.486 9.169-6.333.625-11.662 1.259-11.844 1.408-.433.356 2.49 4.978 6.192 9.792l2.959 3.847 7.59-.697c15.419-1.414 30.891-1.981 30.353-1.113-.302.487.855.679 2.57.427 1.722-.253 3.296.023 3.517.616.269.723.831.665 1.724-.177 1.816-1.713 3.263-1.572 2.563.25-.391 1.021.055 1.5 1.397 1.5 2.061 0 11.356 8.401 12.17 11 .6 1.917 3.795-.393 3.795-2.745 0-1.22-.28-1.267-1.5-.255-.946.785-1.5.852-1.5.181 0-.584.472-1.355 1.049-1.711 1.401-.866-.536-3.181-3.389-4.05-4.846-1.477-10.669-4.546-10.801-5.695-.404-3.492.255-6.096 1.856-7.339 1.698-1.319 1.7-1.452.035-2.746-2.987-2.322-2.007-5.817 3.75-13.373 3.025-3.971 5.5-7.455 5.5-7.743 0-1.045-4.56-.461-7 .897m19.221 14.621c-2.354 1.045-5.823 3.078-7.71 4.518-2.695 2.055-4.083 2.473-6.471 1.949-1.792-.394-3.04-.261-3.04.324 0 .545 1.8 1.295 4 1.667 2.2.372 4 1.054 4 1.516 0 1.586 11.188 5.102 14.157 4.449 2.717-.596 4.188-3.727 1.593-3.39-4.084.53-5.252-.141-5.356-3.077-.101-2.831.108-2.998 3.75-2.998 3.618 0 3.856-.185 3.856-3 0-1.65-.413-3-.918-3-.505 0-1.518-.193-2.25-.43-.733-.236-3.258.426-5.611 1.472m-372.471.184c-2.613.545-4.75 1.295-4.75 1.667 0 1.338 5.87 4.107 8.706 4.107 1.593 0 6.699 1.116 11.345 2.479 10.721 3.146 12.333 3.146 7.706.002-4.206-2.858-6.758-6.647-4.894-7.269 6.045-2.015-9.195-2.844-18.113-.986m0 14.043c-4.037 1.64-3.548 4.415 1 5.678 6.189 1.719 10.18 1.29 13.429-1.444l2.967-2.497-2.323-.879c-4.09-1.547-12.234-2.011-15.073-.858m378.461 3.332c-.71.769-.849 1.399-.309 1.399 1.038 0 2.541-1.902 1.948-2.466-.192-.183-.93.297-1.639 1.067m-3.744 3.336c1.721 3.328 3.549 4.829 3.5 2.872-.036-1.4-3.378-5.809-4.403-5.809-.338 0 .068 1.321.903 2.937M280.768 534c-.747 1.196-2.332 2-3.943 2-4.381 0-7.825 1.742-7.825 3.956 0 2.395 3.913 3.696 6.673 2.219 2.334-1.249 8.824-10.175 7.398-10.175-.58 0-1.616.9-2.303 2m341.458-.821c.58 1.74 3.556 3.372 4.474 2.454.438-.438-.076-1.435-1.143-2.215-2.359-1.725-3.862-1.833-3.331-.239M300.169 751.485c-5.664 1.768-7.576 3.617-9.63 9.314-.932 2.586-2.117 5.601-2.633 6.701-.516 1.1-2.01 5.375-3.32 9.5s-3.798 11.325-5.529 16c-1.732 4.675-4.749 13.45-6.706 19.5-1.956 6.05-3.909 11.45-4.338 12-.43.55-1.104 2.575-1.498 4.5-.393 1.925-2.695 8.087-5.115 13.694-8.566 19.846-4.847 27.805 12.662 27.103 8.589-.344 8.807-.58 11.563-12.483.868-3.748 1.743-7.376 1.945-8.064.279-.949 5.378-1.247 21.149-1.239l20.781.011 2.93 9.549c4.083 13.311 10.166 16.754 20.36 11.526 9.176-4.705 10.659-9.745 6.357-21.597a8077.807 8077.807 0 0 1-15.62-43.5c-1.854-5.225-4.352-11.975-5.551-15-1.2-3.025-2.964-8.2-3.92-11.5-2.287-7.889-6.782-18.333-9.246-21.483-4.009-5.127-15.79-7.294-24.641-4.532m146.331-.599c-8.7 2.224-9.461 3.958-9.626 21.929-.069 7.527-.406 20.21-.75 28.185l-.624 14.5-3-4.845c-1.65-2.664-5.414-8.059-8.365-11.987-2.95-3.928-5.772-8.213-6.27-9.523-.498-1.31-2.486-4.466-4.419-7.013-6.809-8.976-15.429-21.644-15.438-22.686-.004-.579-1.568-2.565-3.474-4.413-5.573-5.401-24.79-5.568-27.091-.235-.952 2.206-2.682 76.599-2.192 94.285.329 11.898.64 13.955 2.506 16.575 3.803 5.341 15.625 7.123 21.828 3.29 6.129-3.789 6.412-5.315 6.445-34.852l.03-26.596 4.028 4.5c2.216 2.475 5.528 6.75 7.36 9.5 1.832 2.75 4.771 6.8 6.531 9 1.761 2.2 4.751 6.77 6.644 10.155 1.893 3.385 4.1 6.7 4.903 7.367.804.667 2.891 3.747 4.639 6.845 3.927 6.962 9.324 13.243 12.748 14.838 6.908 3.217 16.838.655 20.783-5.362 2.273-3.467 3.433-98.238 1.296-105.871-1.697-6.062-10.434-9.646-18.492-7.586m66.5.964c-5.354 1.774-5.598 2.019-9.182 9.251-2.024 4.086-4.559 10.572-5.631 14.414-1.073 3.842-3.157 10.135-4.631 13.985a515.535 515.535 0 0 0-5.244 14.5c-1.409 4.125-3.345 9.075-4.302 11-.957 1.925-2.066 5.3-2.464 7.5-.399 2.2-1.074 4.45-1.5 5-.427.55-2.209 4.756-3.96 9.346-1.752 4.59-4.062 9.983-5.135 11.985-5.604 10.454 3.066 22.169 16.406 22.169 7.073 0 8.094-1.337 14.313-18.75l1.518-4.25h39.539l1.289 6.25c1.414 6.86 5.173 14.246 8.027 15.773 8.417 4.504 21.957-3.004 21.957-12.176 0-3.64-7.635-28.442-10.254-33.311-.602-1.12-2.982-7.436-5.289-14.036-2.306-6.6-5.841-16.5-7.855-22a1332.68 1332.68 0 0 1-7.273-20.5c-1.986-5.775-4.335-11.35-5.22-12.388-4.096-4.806-16.394-6.649-25.109-3.762m215-1.158c-6.27 1.052-9.011 2.532-10.431 5.632-2.965 6.472-10.84 27.414-13.039 34.676-1.249 4.125-3.948 11.775-5.997 17s-4.38 11.75-5.18 14.5c-.8 2.75-2.517 7.025-3.816 9.5-1.298 2.475-3.105 7.079-4.014 10.232-.91 3.152-2.049 5.975-2.531 6.273-1.946 1.203-2.319 9.732-.568 12.984 3.748 6.96 21.234 13.258 23.631 8.511 1.753-3.473 7.945-19.674 7.945-20.788 0-.909 4.934-1.208 19.75-1.195l19.75.018 3.937 10.232c5.04 13.1 4.705 12.733 11.62 12.733 9.236 0 11.949-1.535 15.455-8.747 1.807-3.717-1.667-19.187-7.692-34.253-1.65-4.125-4.469-11.775-6.265-17-10.627-30.914-18.177-50.995-20.49-54.5-3.436-5.205-12.089-7.482-22.065-5.808m-143.705 1.415c-6.51 1.882-6.295-.08-6.295 57.539v52.201l2.619 3.112c7.799 9.269 23.45 7.655 26.33-2.714.593-2.135 1.042-14.6 1.045-28.995.006-25.462.424-28.209 3.414-22.427.803 1.552 2.198 3.435 3.101 4.184 1.728 1.435 10.185 13.788 22.159 32.369 14.697 22.808 17.104 24.896 26.862 23.313 12.715-2.064 12.467-.902 12.468-58.303.003-64.251.594-61.801-14.767-61.171-14.448.591-13.666-1.223-14.027 32.558-.164 15.246-.668 28.091-1.122 28.545-.453.453-2.934-2.695-5.513-6.997-5.612-9.361-10.489-16.643-14.132-21.097-1.473-1.801-3.44-4.768-4.37-6.592-2.157-4.23-13.872-21.193-16.772-24.283-2.412-2.571-14.027-3.258-21-1.242m-423.01 1.098c-5.045 2.436-5.364 6.225-5.062 60.213l.277 49.737 3.802 3.483 3.802 3.484 33.293-.311 33.294-.311 7.404-3.761c14.316-7.272 19.455-15.176 19.335-29.739-.084-10.192-2.78-17.094-9.28-23.751-4.607-4.72-4.854-5.42-2.572-7.314 6.832-5.67 9.537-25.785 4.834-35.946-4.165-8.997-10.258-13.291-22.069-15.55-9.241-1.768-63.489-1.957-67.058-.234m29.382 24.462c-.367.366-.667 5.091-.667 10.5V798h14.045c13.58 0 14.127-.081 16.5-2.455 5.1-5.099 3.014-13.689-4.229-17.42-2.331-1.201-24.511-1.597-25.649-.458m542.769 10.938c-.37 1.592-1.226 3.795-1.901 4.895-.674 1.1-1.466 3.125-1.76 4.5-.294 1.375-1.974 6.325-3.733 11-1.76 4.675-3.566 9.962-4.015 11.75l-.816 3.25h12.894c9.029 0 12.895-.344 12.895-1.147 0-1.571-5.766-19.651-7.448-23.353-.749-1.65-1.931-5.025-2.626-7.5-1.669-5.945-2.669-6.918-3.49-3.395m-427.969 7.075c-1.541 4.225-3.135 9.287-3.542 11.25-.407 1.964-1.65 6.608-2.762 10.32l-2.022 6.75h11.93c13.658 0 12.829.885 9.892-10.562C316.214 802.727 310.382 788 308.89 788c-.342 0-1.883 3.456-3.423 7.68m213.746-1.322c-1.636 3.496-3.727 9.459-4.647 13.25-.92 3.79-2.261 8.467-2.981 10.392-2.145 5.736-1.661 6 10.998 6 8.465 0 11.418-.323 11.42-1.25.004-1.436-3.47-14.099-5.693-20.75-5.628-16.844-5.027-16.339-9.097-7.642M190 834v11l11.75-.006c17.947-.008 23.705-2.678 23.705-10.994 0-8.185-6.095-11-23.821-11H190v11" fill-rule="evenodd"/><path fill="#28140e" stroke="#28140e" d="M477 157.006c-.825.489-3.844 2.009-6.709 3.379-6.244 2.986-27.887 19.139-34.54 25.778-2.611 2.607-6.736 6.106-9.165 7.778-2.429 1.671-7.208 6.18-10.621 10.019-3.412 3.84-7.036 7.245-8.052 7.568-1.017.322-3.249 2.662-4.962 5.199-1.712 2.537-5.351 6.625-8.087 9.085-2.736 2.46-6.062 6.619-7.392 9.243-1.329 2.623-3.788 5.746-5.464 6.939-2.995 2.133-11.289 13.683-17.835 24.837-1.829 3.118-4.46 7.157-5.844 8.977-1.385 1.819-3.279 5.419-4.208 8-.929 2.58-2.95 6.657-4.492 9.059-6.103 9.511-15.523 34.208-21.41 56.133-9.983 37.176-10.918 91.444-2.301 133.441 1.587 7.732 3.203 14.847 3.591 15.809.642 1.594-.152 1.75-8.934 1.75-11.462 0-14.052-.916-23.303-8.243-10.767-8.528-17.472-9.974-26.904-5.801-6.491 2.871-8.694 7.869-4.868 11.044 2.648 2.197 1.626 3-3.818 3-15.706 0-21.859 6.726-16.087 17.583 2.039 3.835 2.361 5.258 1.5 6.636-1.239 1.984-1.44 7.713-.33 9.391 2.819 4.26 12.153 5.637 14.504 2.14 1.984-2.951 3.328-1.623 1.43 1.413-3.855 6.165-2.817 11.054 2.849 13.422 8.772 3.665 17.678-.144 22.995-9.835l1.508-2.75h27.006c24.849 0 27.049.14 27.542 1.75.707 2.305 14.898 30.706 17.709 35.442a18043.4 18043.4 0 0 1 5.633 9.5c5.038 8.503 10.581 16.509 13.754 19.864 1.532 1.619 4.067 4.969 5.633 7.444 1.567 2.475 5.48 7.2 8.696 10.5 8.31 8.526 17.86 18.075 19.811 19.811.916.815 4.118 4.003 7.116 7.085 2.999 3.082 5.971 5.604 6.605 5.604.635 0 2.232 1.258 3.549 2.796 3.08 3.595 17.623 14.699 25.519 19.485 3.369 2.041 6.732 4.443 7.474 5.337.742.894 4.478 3.148 8.304 5.01 3.825 1.861 7.683 4.044 8.575 4.851 2.559 2.316 20.972 11.145 26.902 12.899 2.958.875 5.883 1.985 6.5 2.466 2.204 1.722 14.267 5.291 22.621 6.694 17.071 2.866 36.775 1.214 49.645-4.163 7.202-3.009 19.5.767 45.855 14.08 8.25 4.167 17.195 8.238 19.879 9.045 2.683.808 5.429 1.926 6.102 2.484.673.559 3.905 1.296 7.183 1.639 6.933.724 18.628-3.564 21.288-7.807.798-1.274 3.661-5.183 6.362-8.687 7.387-9.585 13.699-30.05 11.707-37.959-2.644-10.5-4.395-11.489-22.521-12.722-19.941-1.356-35.604-6.709-50.459-17.243-10.448-7.408-10.099-6.792-12.042-21.27-1.687-12.572-7.896-29.886-13.425-37.435-1.208-1.65-2.748-4.37-3.422-6.045-.674-1.675-4.809-6.847-9.188-11.494-4.38-4.646-7.991-8.901-8.024-9.455-.033-.553-2.532-3.031-5.554-5.506-3.022-2.475-6.113-5.062-6.869-5.75-.756-.687-1.856-1.25-2.446-1.25a1.069 1.069 0 0 1-1.071-1.059c0-.582.563-.721 1.25-.308 1.747 1.049-.799-2.145-6.481-8.133-2.609-2.75-4.75-5.498-4.757-6.106-.031-2.84 34.201-2.176 41.042.796 2.852 1.239 4.098 2.758 6.314 7.696 1.519 3.384 3.2 5.881 3.737 5.549 1.2-.742.193-4.326-1.878-6.685-.845-.962-1.087-1.75-.537-1.75.55 0 1.83.917 2.844 2.038 1.397 1.543 2.588 1.892 4.905 1.439 2.086-.408 2.622-.296 1.683.351-.758.521-1.069 1.449-.691 2.06.378.612.12 1.112-.572 1.112-.915 0-.959.3-.16 1.099 2.103 2.103 4.785.142 5.059-3.698.381-5.346 2.532-7.557 3.553-3.651.251.962.509.063.573-2 .084-2.718-.297-3.75-1.384-3.75-.831 0-1.5-.888-1.5-1.992 0-1.095-.9-2.553-2-3.24-2.569-1.605-2.552-2.768.04-2.768 2.402 0 7.96 3.864 7.96 5.533 0 2.111 3.6 4.556 5.605 3.807 4.983-1.863 8.319-11.862 9.017-27.022.5-10.867.449-11.224-1.804-12.669-4.766-3.055-10.125-2.461-16.846 1.869-6.232 4.015-7.594 3.094-3.061-2.07 3.34-3.804 3.67-5.482 2.014-10.233-2.209-6.338-8.32-8.033-20.347-5.645-8.106 1.61-8.797 1.956-13.13 6.589-3.771 4.031-5.483 5.073-9.76 5.937-2.854.576-7.213 1.666-9.688 2.421-4.178 1.276-27.621 5.483-30.553 5.483-.717 0-3.698-3.077-6.625-6.838-2.93-3.764-5.899-6.644-6.606-6.406-.706.238-1.831.003-2.5-.523-.787-.618-2.234-.526-4.101.261l-2.884 1.216 3.634 3.853c1.999 2.12 3.635 4.478 3.635 5.241 0 1.907 2.3 5.855 10.667 18.307 3.942 5.867 7.888 12.062 8.77 13.766.881 1.705 3.844 5.413 6.583 8.24 2.739 2.827 4.98 5.657 4.98 6.289 0 1.197 2.54 4.012 10.464 11.594 2.586 2.475 5.313 5.664 6.06 7.086.747 1.423 2.973 3.818 4.946 5.324 4.939 3.767 7.072 6.128 11.824 13.09 2.253 3.3 4.702 6.613 5.443 7.363 7.345 7.435 14.611 27.57 16.232 44.978l.992 10.659 4.417 4c5.411 4.901 5.48 4.955 14.122 10.924 3.85 2.66 7.675 5.404 8.5 6.098.825.695 4.875 2.221 9 3.391 4.125 1.171 10.65 3.042 14.5 4.158 3.85 1.116 10.822 2.491 15.494 3.056 4.671.565 8.581 1.114 8.687 1.221.106.106-1.578 3.719-3.744 8.028-2.165 4.309-3.937 8.462-3.937 9.229 0 .767-.397 1.395-.882 1.395-.987 0-5.857 14.617-6.793 20.386-.355 2.186-1.073 3.541-1.74 3.285-.625-.24-3.825-.968-7.111-1.618-5.593-1.107-11.174-2.599-19.474-5.209-1.925-.605-8.278-3.748-14.117-6.985-21.983-12.186-33.127-14.347-48.383-9.383-19.547 6.36-38.264 5.864-59.405-1.572-14.045-4.941-32.835-13.816-40.69-19.219-2.744-1.888-6.847-4.38-9.117-5.538-4.407-2.248-14.986-9.86-22.156-15.942-2.403-2.038-5.103-4.114-6-4.615-6.832-3.81-37.534-33.024-43.177-41.085-1.542-2.203-5.118-6.48-7.947-9.505-2.829-3.025-5.841-6.85-6.695-8.5-.854-1.65-2.857-4.8-4.452-7-7.698-10.616-10.18-14.532-13.311-21-1.864-3.85-4.55-8.707-5.969-10.794-1.42-2.087-2.581-3.983-2.581-4.212 0-.23-1.554-3.697-3.454-7.706-1.9-4.008-4.336-9.988-5.414-13.288-1.755-5.377-5.73-15.624-8.145-21-.875-1.949-3.822-13.296-7.919-30.5-7.475-31.387-7.668-81.658-.453-118.5 2.555-13.047 10.276-38.078 12.9-41.826.817-1.165 1.485-2.758 1.485-3.539 0-2.522 7.199-18.268 11.662-25.506 2.386-3.87 4.338-7.638 4.338-8.374 0-.735.841-2.555 1.869-4.045 1.028-1.491 3.799-5.635 6.159-9.21 2.36-3.575 6.166-8.75 8.46-11.5 2.293-2.75 4.748-6.455 5.455-8.233.707-1.779 3.147-4.939 5.421-7.023 4.777-4.377 10.636-11.64 10.636-13.185 0-.583.402-1.059.894-1.059 1.187 0 13.106-11.695 13.106-12.86 0-.501 1.012-1.597 2.25-2.436 1.238-.84 5.735-4.911 9.995-9.046 4.259-4.136 8.647-7.806 9.75-8.156 1.103-.35 2.005-1.056 2.005-1.569 0-.513.611-.933 1.357-.933.747 0 3.559-2.147 6.25-4.77 11.193-10.913 18.271-14.333 21.393-10.339.941 1.204 18.493 11.852 22.5 13.65 2.2.987 4.675 2.36 5.5 3.052 2.482 2.082 20.036 7.18 27.151 7.885 8.114.805 8.196.992 6.339 14.326-.743 5.333-1.88 16.221-2.527 24.196-.647 7.975-1.369 14.821-1.605 15.212-.621 1.03-5.349 58.192-6.808 82.288-1.387 22.924-2.963 69.009-4.198 122.75l-.661 28.75 4.404.014c2.423.007 5.469.298 6.768.646 2.143.573 2.26.438 1.25-1.448-3.065-5.728.54-132.419 5.342-187.712 1.615-18.598 3.892-40.496 5.095-49 .778-5.5 2.17-20.413 3.093-33.14 1.839-25.353 1.498-29.07-3.261-35.52-2.271-3.078-17.049-14.834-18.652-14.838-.423-.001-2.673-1.21-5-2.686-7.771-4.931-35.051-11.489-38.73-9.31M365.5 386.202c-13.798 4.801-16.251 30.179-3.711 38.395 9.422 6.174 22.958 1.041 27.208-10.319 6.655-17.787-6.814-33.881-23.497-28.076m102.936.252c-11.947 5.041-15.289 24.717-5.829 34.314C475.899 434.25 495 425.247 495 405.5c0-9.922-4.583-17.584-11.327-18.936-6.188-1.241-12.45-1.286-15.237-.11m-101.851 11.742c-3.933 3.416-4.456 8.572-1.224 12.06 4.504 4.86 10.799 3.28 12.74-3.197 2.474-8.258-5.313-14.251-11.516-8.863m102.466-.769c-4.784 2.65-5.304 8.474-1.128 12.65 3.984 3.984 8.052 3.93 11.488-.154 6.5-7.724-1.516-17.394-10.36-12.496m-85.431 51.287c-5.027 1.29 1.691 24.309 9.442 32.35 5.145 5.339 6.938 6.087 6.938 2.896 0-14.303 29.496-22.206 40.981-10.979 3.57 3.49 6.019 8.157 6.019 11.469 0 3.193.144 3.183 5.057-.376 6.774-4.907 12.404-14.207 13.465-22.241.315-2.383.767-5.58 1.004-7.104.29-1.859-.219-3.422-1.547-4.75-1.908-1.908-3.366-1.975-40.729-1.863-21.312.064-39.596.333-40.63.598M274 493.48c0 .813 1.913 2.44 4.25 3.614 4.658 2.341 8.658 6.487 8.714 9.034.072 3.24-2.088 3.701-12.227 2.608-22.025-2.374-33.291 5.059-12.737 8.403 2.475.403 7.99 1.734 12.256 2.957 8.052 2.31 11.068 1.883 6.744-.955-4.798-3.149-7.331-6.21-6.133-7.408 1.473-1.473 8.133 1.615 8.133 3.771 0 2.706 4.924 9.442 7.251 9.918 1.237.253 11.249.728 22.249 1.055 11 .327 21.524.865 23.387 1.196l3.387.601-.728-3.887c-.4-2.138-1.475-6.137-2.387-8.887l-1.659-5-12.862-.756c-14.835-.872-22.451-3.828-31.138-12.084-5.568-5.291-16.5-8.061-16.5-4.18m335 1.353c-1.925.965-4.85 2.492-6.5 3.394-15.386 8.408-31.331 13.318-46.75 14.393-6.52.455-9.75 1.077-9.75 1.877 0 1.977 2.768 6.761 6.322 10.928l3.348 3.924 8.415-1.176c27.313-3.816 48.173 1.009 52.213 12.077.836 2.29 1.976 2.21 4.248-.301 3.277-3.621.186-7.196-10.046-11.617-4.906-2.119-5.57-3.017-4.437-5.999.628-1.651.53-2.352-.338-2.396-.674-.035-.1-.512 1.275-1.06 2.5-.998 10.865.548 12.009 2.219 1.211 1.767 11.22 4.885 13.692 4.264 1.822-.457 2.386-.31 1.889.494-.389.63-2.008 1.146-3.597 1.146-3.29 0-2.914 2.957 1.015 8l1.948 2.5.022-2.596c.012-1.428.646-3.903 1.409-5.5s1.679-7.067 2.036-12.154l.649-9.25-3.286.015c-4.163.018-11.818 2.651-13.218 4.546-1.383 1.873-7.568 3.709-7.568 2.247 0-.684-.493-.644-1.404.113-.8.663-2.522.885-4 .514-4.343-1.09-3.441-5.15 2.962-13.334 6.949-8.881 6.006-11.559-2.558-7.268m-.25 18.829c.688.278 1.813.278 2.5 0 .688-.277.125-.504-1.25-.504s-1.937.227-1.25.504m21.807 4.588c.904 2.94 1.089 3.1 2.822 2.435 2.131-.818.841-4.685-1.563-4.685-1.561 0-1.813.449-1.259 2.25M256 523.403c-6.831 2.486-3.965 7.114 5.063 8.175 5.044.592 5.735.419 8.708-2.19 1.776-1.558 3.229-3.194 3.229-3.635 0-2.411-12.2-4.097-17-2.35m24.703 10.128c-1.423 1.957-2.679 2.469-6.05 2.469-4.575 0-6.653 1.32-6.653 4.225 0 4.964 10.807 3.108 12.474-2.143.317-1 1.466-2.622 2.552-3.605 1.085-.983 1.974-2.167 1.974-2.632 0-1.712-2.553-.71-4.297 1.686M302.5 751.193c-5.673 1.702-9.044 3.881-10.198 6.591l-2.856 6.716c-.935 2.2-2.493 6.7-3.461 10-1.529 5.212-3.823 11.683-10.282 29-.82 2.2-2.733 7.825-4.251 12.5-1.517 4.675-3.088 8.95-3.49 9.5-.402.55-1.051 2.575-1.442 4.5-.392 1.925-2.581 7.775-4.866 13-8.295 18.97-3.886 27.83 13.346 26.822 5.43-.318 5.529-.38 7.768-4.888 1.247-2.512 2.748-7.294 3.335-10.626l1.067-6.059 4.555-.625c2.505-.343 12.044-.624 21.199-.624h16.644l2.836 9.44c1.56 5.193 3.673 10.339 4.695 11.436 2.885 3.097 9.803 3.726 14.51 1.319 11.262-5.758 11.831-9.677 4.262-29.358-2.821-7.336-5.714-15.362-6.429-17.837-1.417-4.904-6.745-19.585-11.977-33-1.823-4.675-3.629-10.052-4.013-11.949-1.032-5.095-7.278-19.225-9.589-21.691-3.236-3.454-15.661-5.877-21.363-4.167m69.5 1.113c-5.649 1.927-5.829 3.742-5.92 59.796l-.08 49.602 2.25 3.317c3.939 5.805 14.155 7.746 20.413 3.878 6.865-4.243 7.721-7.837 7-29.399-.349-10.45-.349-22.065.001-25.811l.637-6.811 4.384 5.012c4.681 5.351 11.315 14.793 11.315 16.104 0 .435.597 1.021 1.326 1.301.729.28 3.285 3.815 5.679 7.857 2.395 4.041 5.236 8.344 6.314 9.561 1.958 2.211 2.519 3.077 6.079 9.392 7.684 13.632 17.458 18.099 27.16 12.414 6.701-3.927 6.628-3.339 7.131-57.019.51-54.28.371-55.701-5.729-58.702-7.303-3.592-18.911-1.342-21.681 4.202-.908 1.816-1.254 10.075-1.264 30.191-.008 15.273-.418 27.94-.913 28.246-.494.305-2.385-1.806-4.202-4.691-1.817-2.885-5.616-8.396-8.443-12.246-2.826-3.85-5.439-7.834-5.806-8.853-.367-1.019-2.254-3.944-4.193-6.5-6.567-8.657-15.441-21.642-15.476-22.647-.245-6.911-15.57-11.744-25.982-8.194m140.097.163c-5.135 1.857-11.68 13.419-14.044 24.81-.482 2.321-2.277 7.821-3.99 12.221s-4.269 11.375-5.68 15.5c-1.412 4.125-3.426 9.33-4.475 11.566-1.049 2.236-1.908 4.852-1.908 5.814 0 .961-1.073 4.095-2.385 6.963-1.312 2.868-3.14 7.451-4.062 10.186-.922 2.734-2.549 6.459-3.615 8.278-6.349 10.835 3.513 24.352 16.498 22.615 4.681-.627 8.463-3.256 8.518-5.922.012-.55 1.459-4.712 3.216-9.25l3.194-8.25h39.309l1.713 7.098c2.03 8.413 5.646 14.577 9.401 16.028 9.568 3.697 21.236-4.871 19.689-14.457-.659-4.079-5.649-20.206-7.479-24.169-2.145-4.646-7.935-20.337-8.996-24.382-.632-2.411-1.578-5.111-2.102-6-1.047-1.777-8.52-21.832-9.918-26.618-2.09-7.155-5.603-16.239-7.065-18.271-3.356-4.663-17.59-6.736-25.819-3.76m73.216-.379c-7.592 2.227-7.313.044-7.313 57.141 0 45.103.185 51.266 1.612 53.615 4.908 8.084 14.957 10.49 22.081 5.286 5.896-4.306 6.295-6.579 6.301-35.882.006-24.84.446-28.091 3.115-23 .649 1.237 2.674 3.921 4.5 5.964 1.827 2.043 4.427 5.896 5.778 8.563 1.351 2.667 3.156 5.429 4.01 6.138.854.709 4.143 5.18 7.309 9.937 7.159 10.758 7.311 11 9.99 15.867 2.183 3.967 4.697 7.28 9.115 12.016 3.033 3.252 15.493 3.09 19.239-.25 4.864-4.337 4.95-5.296 4.95-55.286 0-47.188-.592-56.786-3.659-59.331-1.587-1.317-15.484-1.748-19.562-.606-4.967 1.39-5.253 3.07-5.611 32.988-.361 30.143-.693 31.614-5.189 23-1.363-2.612-4.289-7.225-6.502-10.25-2.212-3.025-4.671-6.776-5.465-8.336-.793-1.56-2.466-3.941-3.718-5.292-1.253-1.351-3.446-4.575-4.875-7.164-1.429-2.59-4.992-7.858-7.919-11.708-2.927-3.85-5.872-8.213-6.546-9.695-.674-1.482-1.951-2.982-2.839-3.332-2.791-1.102-15.472-1.36-18.802-.383m137.643.162c-3.401.96-3.737 1.49-8.301 13.124-2.616 6.668-5.62 14.149-6.675 16.624-1.055 2.475-2.405 6.525-3.001 9-.596 2.475-2.242 7.425-3.656 11-5.4 13.644-7.206 18.598-7.835 21.5-.358 1.65-2.189 6.123-4.069 9.94-1.881 3.817-3.419 7.649-3.419 8.515 0 .866-.868 3.194-1.929 5.174-5.318 9.921-3.241 15.419 8.012 21.207 7.461 3.838 10.975 4.506 12.707 2.414 1.194-1.441 6.997-15.656 8.395-20.563l.944-3.313 19.577.313c16.175.259 19.711.574 20.344 1.813 1.248 2.442 6.773 16.321 7.415 18.627.986 3.545 13.332 4.27 17.584 1.033 2.941-2.238 5.951-7.497 5.951-10.396 0-4.031-5.125-21.655-9.673-33.264-3.59-9.161-4.944-12.847-6.614-18-1.262-3.893-6.152-17.584-14.109-39.5-3.726-10.261-6.531-14.385-10.541-15.499-4.422-1.229-16.365-1.086-21.107.251m-558.374.733c-7.929 1.528-7.736-.062-7.378 60.516.328 55.355-.098 51.809 6.655 55.423 2.578 1.38 57.854 1.418 64.141.044 5.342-1.168 14-4.964 14-6.139 0-.456.563-.831 1.25-.834 2.411-.009 8.884-7.046 11.263-12.244 5.568-12.169 3.015-27.007-6.292-36.566l-5.278-5.421 2.384-3.132c10.255-13.47 9.978-32.26-.631-42.87-5.877-5.876-11.137-7.774-24.39-8.8-13.897-1.077-50.097-1.061-55.724.023M190 788.018v11.209l13.75-.457c15.865-.528 16.524-.721 18.782-5.479 2.169-4.571 1.362-9.851-2.022-13.237-2.454-2.455-3.094-2.567-16.531-2.9L190 776.808v11.21m115.719 6.032c-2.045 5.252-3.719 10.218-3.719 11.035 0 .817-1.113 4.844-2.474 8.95C295.667 825.68 295.09 825 308.833 825c13.531 0 13.229.12 12.038-4.8-.493-2.035-1.338-5.95-1.877-8.7-1.01-5.148-2.528-9.325-6.541-18-1.272-2.75-2.471-5.9-2.664-7-.216-1.23-1.782 1.675-4.07 7.55m427.9-7.967c-1.745 5.546-9.104 26.279-10.683 30.102-3.331 8.063-3.699 7.815 11.564 7.815 7.425 0 13.5-.188 13.5-.417 0-.903-7.215-22.262-8.473-25.083-.736-1.65-1.906-5.025-2.601-7.5-1.455-5.182-2.659-6.974-3.307-4.917m-214.662 7.667c-1.719 3.712-3.773 9.45-4.566 12.75-.792 3.3-2.205 8.386-3.14 11.302-2.211 6.893-1.76 7.163 11.999 7.183 9.567.013 10.753-.178 10.776-1.735.047-3.143-4.26-19.619-6.6-25.25-1.258-3.025-2.592-6.737-2.965-8.25-1.025-4.159-2.082-3.391-5.504 4m-329.313 39c.146 5.362.286 10.313.311 11 .07 1.948 26.207 1.735 30.034-.244 8.407-4.348 8.065-15.497-.588-19.112-2.288-.956-7.531-1.394-16.679-1.394h-13.343l.265 9.75" fill-rule="evenodd"/></svg>